0
SECTION
2
HEADER
9
$INSUNITS
70
4
0
ENDSEC
0
SECTION
2
TABLES
0
TABLE
2
LTYPE
0
LTYPE
72
65
70
64
2
CONTINUOUS
3
______
73
0
40
0
0
ENDTAB
0
TABLE
2
LAYER
0
ENDTAB
0
ENDSEC
0
SECTION
2
ENTITIES
0
LINE
8
0
10
35
20
-107.5
11
35
21
-24.5
0
LINE
8
0
10
37
20
-22.5
11
167
21
-22.5
0
LINE
8
0
10
169
20
-24.5
11
169
21
-107.5
0
LINE
8
0
10
167
20
-109.5
11
37
21
-109.5
0
ARC
8
0
10
37
20
-24.5
40
2
50
90
51
180
0
ARC
8
0
10
167
20
-24.5
40
2
50
0
51
90
0
ARC
8
0
10
167
20
-107.5
40
2
50
270
51
0
0
ARC
8
0
10
37
20
-107.5
40
2
50
180
51
270
0
LINE
8
0
10
36.25
20
-108.25
11
53.75
21
-108.25
0
LINE
8
0
10
53.75
20
-108.25
11
53.75
21
-91.75
0
LINE
8
0
10
53.75
20
-91.75
11
36.25
21
-91.75
0
LINE
8
0
10
36.25
20
-91.75
11
36.25
21
-108.25
0
LINE
8
0
10
36.25
20
-91.25
11
53.75
21
-91.25
0
LINE
8
0
10
53.75
20
-91.25
11
53.75
21
-74.75
0
LINE
8
0
10
53.75
20
-74.75
11
36.25
21
-74.75
0
LINE
8
0
10
36.25
20
-74.75
11
36.25
21
-91.25
0
LINE
8
0
10
36.25
20
-74.25
11
53.75
21
-74.25
0
LINE
8
0
10
53.75
20
-74.25
11
53.75
21
-57.75
0
LINE
8
0
10
53.75
20
-57.75
11
36.25
21
-57.75
0
LINE
8
0
10
36.25
20
-57.75
11
36.25
21
-74.25
0
LINE
8
0
10
36.25
20
-57.25
11
53.75
21
-57.25
0
LINE
8
0
10
53.75
20
-57.25
11
53.75
21
-40.75
0
LINE
8
0
10
53.75
20
-40.75
11
36.25
21
-40.75
0
LINE
8
0
10
36.25
20
-40.75
11
36.25
21
-57.25
0
LINE
8
0
10
36.25
20
-40.25
11
53.75
21
-40.25
0
LINE
8
0
10
53.75
20
-40.25
11
53.75
21
-23.75
0
LINE
8
0
10
53.75
20
-23.75
11
36.25
21
-23.75
0
LINE
8
0
10
36.25
20
-23.75
11
36.25
21
-40.25
0
LINE
8
0
10
54.25
20
-108.25
11
71.75
21
-108.25
0
LINE
8
0
10
71.75
20
-108.25
11
71.75
21
-91.75
0
LINE
8
0
10
71.75
20
-91.75
11
54.25
21
-91.75
0
LINE
8
0
10
54.25
20
-91.75
11
54.25
21
-108.25
0
LINE
8
0
10
54.25
20
-91.25
11
71.75
21
-91.25
0
LINE
8
0
10
71.75
20
-91.25
11
71.75
21
-74.75
0
LINE
8
0
10
71.75
20
-74.75
11
54.25
21
-74.75
0
LINE
8
0
10
54.25
20
-74.75
11
54.25
21
-91.25
0
LINE
8
0
10
54.25
20
-74.25
11
71.75
21
-74.25
0
LINE
8
0
10
71.75
20
-74.25
11
71.75
21
-57.75
0
LINE
8
0
10
71.75
20
-57.75
11
54.25
21
-57.75
0
LINE
8
0
10
54.25
20
-57.75
11
54.25
21
-74.25
0
LINE
8
0
10
54.25
20
-57.25
11
71.75
21
-57.25
0
LINE
8
0
10
71.75
20
-57.25
11
71.75
21
-40.75
0
LINE
8
0
10
71.75
20
-40.75
11
54.25
21
-40.75
0
LINE
8
0
10
54.25
20
-40.75
11
54.25
21
-57.25
0
LINE
8
0
10
54.25
20
-40.25
11
71.75
21
-40.25
0
LINE
8
0
10
71.75
20
-40.25
11
71.75
21
-23.75
0
LINE
8
0
10
71.75
20
-23.75
11
54.25
21
-23.75
0
LINE
8
0
10
54.25
20
-23.75
11
54.25
21
-40.25
0
LINE
8
0
10
72.25
20
-108.25
11
89.75
21
-108.25
0
LINE
8
0
10
89.75
20
-108.25
11
89.75
21
-91.75
0
LINE
8
0
10
89.75
20
-91.75
11
72.25
21
-91.75
0
LINE
8
0
10
72.25
20
-91.75
11
72.25
21
-108.25
0
LINE
8
0
10
72.25
20
-91.25
11
89.75
21
-91.25
0
LINE
8
0
10
89.75
20
-91.25
11
89.75
21
-74.75
0
LINE
8
0
10
89.75
20
-74.75
11
72.25
21
-74.75
0
LINE
8
0
10
72.25
20
-74.75
11
72.25
21
-91.25
0
LINE
8
0
10
72.25
20
-74.25
11
89.75
21
-74.25
0
LINE
8
0
10
89.75
20
-74.25
11
89.75
21
-57.75
0
LINE
8
0
10
89.75
20
-57.75
11
72.25
21
-57.75
0
LINE
8
0
10
72.25
20
-57.75
11
72.25
21
-74.25
0
LINE
8
0
10
72.25
20
-57.25
11
89.75
21
-57.25
0
LINE
8
0
10
89.75
20
-57.25
11
89.75
21
-40.75
0
LINE
8
0
10
89.75
20
-40.75
11
72.25
21
-40.75
0
LINE
8
0
10
72.25
20
-40.75
11
72.25
21
-57.25
0
LINE
8
0
10
72.25
20
-40.25
11
89.75
21
-40.25
0
LINE
8
0
10
89.75
20
-40.25
11
89.75
21
-23.75
0
LINE
8
0
10
89.75
20
-23.75
11
72.25
21
-23.75
0
LINE
8
0
10
72.25
20
-23.75
11
72.25
21
-40.25
0
LINE
8
0
10
90.25
20
-108.25
11
107.75
21
-108.25
0
LINE
8
0
10
107.75
20
-108.25
11
107.75
21
-91.75
0
LINE
8
0
10
107.75
20
-91.75
11
90.25
21
-91.75
0
LINE
8
0
10
90.25
20
-91.75
11
90.25
21
-108.25
0
LINE
8
0
10
90.25
20
-91.25
11
107.75
21
-91.25
0
LINE
8
0
10
107.75
20
-91.25
11
107.75
21
-74.75
0
LINE
8
0
10
107.75
20
-74.75
11
90.25
21
-74.75
0
LINE
8
0
10
90.25
20
-74.75
11
90.25
21
-91.25
0
LINE
8
0
10
90.25
20
-74.25
11
107.75
21
-74.25
0
LINE
8
0
10
107.75
20
-74.25
11
107.75
21
-57.75
0
LINE
8
0
10
107.75
20
-57.75
11
90.25
21
-57.75
0
LINE
8
0
10
90.25
20
-57.75
11
90.25
21
-74.25
0
LINE
8
0
10
90.25
20
-57.25
11
107.75
21
-57.25
0
LINE
8
0
10
107.75
20
-57.25
11
107.75
21
-40.75
0
LINE
8
0
10
107.75
20
-40.75
11
90.25
21
-40.75
0
LINE
8
0
10
90.25
20
-40.75
11
90.25
21
-57.25
0
LINE
8
0
10
90.25
20
-40.25
11
107.75
21
-40.25
0
LINE
8
0
10
107.75
20
-40.25
11
107.75
21
-23.75
0
LINE
8
0
10
107.75
20
-23.75
11
90.25
21
-23.75
0
LINE
8
0
10
90.25
20
-23.75
11
90.25
21
-40.25
0
LINE
8
0
10
108.25
20
-108.25
11
125.75
21
-108.25
0
LINE
8
0
10
125.75
20
-108.25
11
125.75
21
-91.75
0
LINE
8
0
10
125.75
20
-91.75
11
108.25
21
-91.75
0
LINE
8
0
10
108.25
20
-91.75
11
108.25
21
-108.25
0
LINE
8
0
10
108.25
20
-91.25
11
125.75
21
-91.25
0
LINE
8
0
10
125.75
20
-91.25
11
125.75
21
-74.75
0
LINE
8
0
10
125.75
20
-74.75
11
108.25
21
-74.75
0
LINE
8
0
10
108.25
20
-74.75
11
108.25
21
-91.25
0
LINE
8
0
10
108.25
20
-74.25
11
125.75
21
-74.25
0
LINE
8
0
10
125.75
20
-74.25
11
125.75
21
-57.75
0
LINE
8
0
10
125.75
20
-57.75
11
108.25
21
-57.75
0
LINE
8
0
10
108.25
20
-57.75
11
108.25
21
-74.25
0
LINE
8
0
10
108.25
20
-57.25
11
125.75
21
-57.25
0
LINE
8
0
10
125.75
20
-57.25
11
125.75
21
-40.75
0
LINE
8
0
10
125.75
20
-40.75
11
108.25
21
-40.75
0
LINE
8
0
10
108.25
20
-40.75
11
108.25
21
-57.25
0
LINE
8
0
10
108.25
20
-40.25
11
125.75
21
-40.25
0
LINE
8
0
10
125.75
20
-40.25
11
125.75
21
-23.75
0
LINE
8
0
10
125.75
20
-23.75
11
108.25
21
-23.75
0
LINE
8
0
10
108.25
20
-23.75
11
108.25
21
-40.25
0
LINE
8
0
10
126.25
20
-108.25
11
143.75
21
-108.25
0
LINE
8
0
10
143.75
20
-108.25
11
143.75
21
-91.75
0
LINE
8
0
10
143.75
20
-91.75
11
126.25
21
-91.75
0
LINE
8
0
10
126.25
20
-91.75
11
126.25
21
-108.25
0
LINE
8
0
10
126.25
20
-91.25
11
143.75
21
-91.25
0
LINE
8
0
10
143.75
20
-91.25
11
143.75
21
-74.75
0
LINE
8
0
10
143.75
20
-74.75
11
126.25
21
-74.75
0
LINE
8
0
10
126.25
20
-74.75
11
126.25
21
-91.25
0
LINE
8
0
10
126.25
20
-74.25
11
143.75
21
-74.25
0
LINE
8
0
10
143.75
20
-74.25
11
143.75
21
-57.75
0
LINE
8
0
10
143.75
20
-57.75
11
126.25
21
-57.75
0
LINE
8
0
10
126.25
20
-57.75
11
126.25
21
-74.25
0
LINE
8
0
10
126.25
20
-57.25
11
143.75
21
-57.25
0
LINE
8
0
10
143.75
20
-57.25
11
143.75
21
-40.75
0
LINE
8
0
10
143.75
20
-40.75
11
126.25
21
-40.75
0
LINE
8
0
10
126.25
20
-40.75
11
126.25
21
-57.25
0
LINE
8
0
10
126.25
20
-40.25
11
143.75
21
-40.25
0
LINE
8
0
10
143.75
20
-40.25
11
143.75
21
-23.75
0
LINE
8
0
10
143.75
20
-23.75
11
126.25
21
-23.75
0
LINE
8
0
10
126.25
20
-23.75
11
126.25
21
-40.25
0
ENDSEC
0
EOF